<svg width="1200" height="900" viewBox="0 0 1200 900" fill="none" xmlns="http://www.w3.org/2000/svg">
  <rect width="1200" height="900" rx="56" fill="#120C10"/>
  <rect x="38" y="38" width="1124" height="824" rx="42" fill="url(#bg)"/>
  <rect x="96" y="110" width="1008" height="680" rx="34" fill="#171A22" stroke="#FFB074" stroke-opacity=".32"/>
  <rect x="140" y="162" width="302" height="144" rx="28" fill="#221A18"/>
  <rect x="474" y="162" width="252" height="144" rx="28" fill="#23191A"/>
  <rect x="758" y="162" width="204" height="144" rx="28" fill="#231D19"/>
  <rect x="140" y="344" width="474" height="326" rx="34" fill="#FFF1E6"/>
  <rect x="650" y="344" width="312" height="146" rx="30" fill="#241A19"/>
  <rect x="650" y="524" width="312" height="146" rx="30" fill="#241A19"/>
  <circle cx="212" cy="500" r="76" fill="#FF8A3D"/>
  <rect x="196" y="460" width="32" height="92" rx="16" fill="#FFD29D"/>
  <rect x="250" y="455" width="24" height="102" rx="12" fill="#FFE8B8"/>
  <path d="M324 496C324 539.078 289.078 574 246 574H206C162.922 574 128 539.078 128 496V486H324V496Z" fill="#E64D1D"/>
  <rect x="390" y="414" width="166" height="30" rx="15" fill="#2D3444"/>
  <rect x="390" y="462" width="132" height="22" rx="11" fill="#596072"/>
  <rect x="390" y="514" width="122" height="22" rx="11" fill="#596072"/>
  <rect x="390" y="566" width="154" height="42" rx="21" fill="#FF8A3D"/>
  <rect x="688" y="390" width="156" height="24" rx="12" fill="#404B63"/>
  <rect x="688" y="430" width="122" height="18" rx="9" fill="#69758E"/>
  <rect x="688" y="570" width="156" height="24" rx="12" fill="#404B63"/>
  <rect x="688" y="610" width="132" height="18" rx="9" fill="#69758E"/>
  <rect x="140" y="730" width="192" height="54" rx="27" fill="#FF8A3D"/>
  <text x="140" y="92" fill="#FFD2A8" font-family="Arial, sans-serif" font-size="30" font-weight="700" letter-spacing="4">FAST FOOD BOOKING</text>
  <defs>
    <linearGradient id="bg" x1="38" y1="38" x2="1162" y2="862" gradientUnits="userSpaceOnUse">
      <stop stop-color="#2A1410"/>
      <stop offset="1" stop-color="#191F2B"/>
    </linearGradient>
  </defs>
</svg>
